<?xml version="1.0" encoding="utf-8"?>
<!-- Generator: Adobe Illustrator 16.0.0, SVG Export Plug-In . SVG Version: 6.00 Build 0)  -->
<!DOCTYPE svg PUBLIC "-//W3C//DTD SVG 1.1//EN" "http://www.w3.org/Graphics/SVG/1.1/DTD/svg11.dtd">
<svg version="1.1"
	 id="svg3037" xmlns:sodipodi="http://sodipodi.sourceforge.net/DTD/sodipodi-0.dtd" xmlns:cc="http://creativecommons.org/ns#" xmlns:dc="http://purl.org/dc/elements/1.1/" xmlns:svg="http://www.w3.org/2000/svg" xmlns:inkscape="http://www.inkscape.org/namespaces/inkscape" xmlns:rdf="http://www.w3.org/1999/02/22-rdf-syntax-ns#" sodipodi:docname="copy_font_awesome.svg" inkscape:version="0.48.3.1 r9886"
	 xmlns="http://www.w3.org/2000/svg" xmlns:xlink="http://www.w3.org/1999/xlink" x="0px" y="0px" width="425.201px"
	 height="595.281px" viewBox="0 0 425.201 595.281" enable-background="new 0 0 425.201 595.281" xml:space="preserve">
<sodipodi:namedview  showgrid="false" inkscape:zoom="0.13169643" inkscape:cx="896" pagecolor="#ffffff" bordercolor="#666666" borderopacity="1" id="namedview3043" gridtolerance="10" inkscape:cy="896" guidetolerance="10" objecttolerance="10" inkscape:window-x="0" inkscape:window-height="480" inkscape:window-y="25" inkscape:pageopacity="0" inkscape:current-layer="svg3037" inkscape:window-maximized="0" inkscape:pageshadow="2" inkscape:window-width="640">
	</sodipodi:namedview>
<g id="g3039" transform="matrix(1,0,0,-1,37.966102,1305.4576)">
	<path id="path3041" inkscape:connector-curvature="0" fill="#AAAAAA" d="M330.207,1118.88c5.118,0,9.468-1.791,13.049-5.373
		c3.582-3.582,5.373-7.932,5.373-13.049V867.119c0-5.118-1.791-9.468-5.373-13.049c-3.581-3.582-7.931-5.373-13.049-5.373H145.992
		c-5.116,0-9.466,1.791-13.049,5.373c-3.582,3.581-5.373,7.931-5.373,13.049v55.265H23.182c-5.117,0-9.466,1.79-13.048,5.373
		c-3.583,3.582-5.373,7.934-5.373,13.049v128.951c0,5.117,1.279,10.746,3.838,16.888c2.559,6.14,5.629,11.001,9.21,14.584
		l78.292,78.292c3.583,3.582,8.444,6.65,14.584,9.21c6.14,2.558,11.769,3.838,16.886,3.838h79.828c5.116,0,9.466-1.79,13.049-5.373
		c3.581-3.582,5.373-7.934,5.373-13.048v-62.94c8.698,5.117,16.888,7.676,24.562,7.676h79.824V1118.88z M225.82,1078.007
		l-57.376-57.375h57.376V1078.007z M103.008,1151.694l-57.375-57.375h57.375V1151.694z M140.619,1027.54l60.639,60.638v79.826
		H127.57v-79.826c0-5.118-1.791-9.467-5.373-13.049s-7.932-5.373-13.049-5.373H29.322V946.945h98.248v49.125
		c0,5.116,1.279,10.744,3.838,16.886C133.967,1019.097,137.037,1023.957,140.619,1027.54z M324.068,873.259v221.062h-73.687v-79.827
		c0-5.118-1.791-9.467-5.373-13.048c-3.582-3.583-7.934-5.373-13.049-5.373h-79.827V873.259H324.068z"/>
</g>
</svg>
