<?xml version="1.0" encoding="utf-8"?>
<!-- Generator: Adobe Illustrator 16.0.0, SVG Export Plug-In . SVG Version: 6.00 Build 0)  -->
<!DOCTYPE svg PUBLIC "-//W3C//DTD SVG 1.1//EN" "http://www.w3.org/Graphics/SVG/1.1/DTD/svg11.dtd">
<svg version="1.1"
	 id="svg3025" xmlns:sodipodi="http://sodipodi.sourceforge.net/DTD/sodipodi-0.dtd" xmlns:cc="http://creativecommons.org/ns#" xmlns:dc="http://purl.org/dc/elements/1.1/" xmlns:svg="http://www.w3.org/2000/svg" xmlns:inkscape="http://www.inkscape.org/namespaces/inkscape" xmlns:rdf="http://www.w3.org/1999/02/22-rdf-syntax-ns#" sodipodi:docname="calendar_font_awesome.svg" inkscape:version="0.48.3.1 r9886"
	 xmlns="http://www.w3.org/2000/svg" xmlns:xlink="http://www.w3.org/1999/xlink" x="0px" y="0px" width="425.201px"
	 height="595.281px" viewBox="0 0 425.201 595.281" enable-background="new 0 0 425.201 595.281" xml:space="preserve">
<sodipodi:namedview  showgrid="false" inkscape:zoom="0.13169643" inkscape:cx="896" pagecolor="#ffffff" bordercolor="#666666" borderopacity="1" id="namedview3031" gridtolerance="10" inkscape:cy="896" guidetolerance="10" objecttolerance="10" inkscape:window-x="0" inkscape:window-height="480" inkscape:window-y="25" inkscape:pageopacity="0" inkscape:current-layer="svg3025" inkscape:window-maximized="0" inkscape:pageshadow="2" inkscape:window-width="640">
	</sodipodi:namedview>
<g id="g3027" transform="matrix(1,0,0,-1,91.118644,1297.8644)">
	<path id="path3029" inkscape:connector-curvature="0" fill="#AAAAAA" d="M-21.295,844.939h58.232v58.232h-58.232V844.939z
		 M49.877,844.939h64.703v58.232H49.877V844.939z M-21.295,916.112h58.232v64.702h-58.232V916.112z M49.877,916.112h64.703v64.702
		H49.877V916.112z M-21.295,993.754h58.232v58.231h-58.232V993.754z M127.519,844.939h64.703v58.232h-64.703V844.939z
		 M49.877,993.754h64.703v58.231H49.877V993.754z M205.161,844.939h58.231v58.232h-58.231V844.939z M127.519,916.112h64.703v64.702
		h-64.703V916.112z M56.347,1090.807v58.232c0,1.752-0.641,3.269-1.921,4.549c-1.281,1.281-2.797,1.921-4.55,1.921h-12.94
		c-1.752,0-3.269-0.64-4.55-1.921c-1.28-1.28-1.921-2.797-1.921-4.549v-58.232c0-1.752,0.641-3.269,1.921-4.55
		c1.281-1.28,2.797-1.921,4.55-1.921h12.94c1.752,0,3.269,0.641,4.55,1.921C55.706,1087.538,56.347,1089.055,56.347,1090.807z
		 M205.161,916.112h58.231v64.702h-58.231V916.112z M127.519,993.754h64.703v58.231h-64.703V993.754z M205.161,993.754h58.231
		v58.231h-58.231V993.754z M211.632,1090.807v58.232c0,1.752-0.64,3.269-1.921,4.549c-1.281,1.281-2.797,1.921-4.55,1.921h-12.939
		c-1.753,0-3.27-0.64-4.55-1.921c-1.28-1.28-1.921-2.797-1.921-4.549v-58.232c0-1.752,0.641-3.269,1.921-4.55
		c1.28-1.28,2.797-1.921,4.55-1.921h12.939c1.753,0,3.269,0.641,4.55,1.921C210.992,1087.538,211.632,1089.055,211.632,1090.807z
		 M289.275,1103.747V844.939c0-7.009-2.561-13.074-7.684-18.197c-5.122-5.122-11.188-7.683-18.198-7.683H-21.295
		c-7.009,0-13.076,2.561-18.198,7.683c-5.122,5.123-7.684,11.188-7.684,18.197v258.808c0,7.009,2.562,13.076,7.684,18.198
		c5.122,5.122,11.188,7.684,18.198,7.684h25.88v19.411c0,8.896,3.168,16.512,9.503,22.848c6.335,6.335,13.951,9.502,22.848,9.502
		h12.94c8.897,0,16.513-3.167,22.848-9.502c6.336-6.336,9.503-13.952,9.503-22.848v-19.411h77.643v19.411
		c0,8.896,3.167,16.512,9.503,22.848c6.335,6.335,13.951,9.502,22.849,9.502h12.939c8.896,0,16.513-3.167,22.849-9.502
		c6.335-6.336,9.503-13.952,9.503-22.848v-19.411h25.88c7.01,0,13.076-2.562,18.198-7.684
		C286.714,1116.823,289.275,1110.756,289.275,1103.747z"/>
</g>
</svg>
