<?xml version="1.0" encoding="utf-8"?>
<!-- Generator: Adobe Illustrator 16.0.0, SVG Export Plug-In . SVG Version: 6.00 Build 0)  -->
<!DOCTYPE svg PUBLIC "-//W3C//DTD SVG 1.1//EN" "http://www.w3.org/Graphics/SVG/1.1/DTD/svg11.dtd">
<svg version="1.1"
	 id="svg3741" xmlns:rdf="http://www.w3.org/1999/02/22-rdf-syntax-ns#" xmlns:cc="http://creativecommons.org/ns#" xmlns:dc="http://purl.org/dc/elements/1.1/" sodipodi:docname="trash_font_awesome.svg" inkscape:version="0.48.3.1 r9886" xmlns:sodipodi="http://sodipodi.sourceforge.net/DTD/sodipodi-0.dtd" xmlns:inkscape="http://www.inkscape.org/namespaces/inkscape" xmlns:svg="http://www.w3.org/2000/svg"
	 xmlns="http://www.w3.org/2000/svg" xmlns:xlink="http://www.w3.org/1999/xlink" x="0px" y="0px" width="425.201px"
	 height="595.281px" viewBox="0 0 425.201 595.281" enable-background="new 0 0 425.201 595.281" xml:space="preserve">
<sodipodi:namedview  inkscape:window-height="480" inkscape:pageshadow="2" inkscape:window-x="0" inkscape:window-y="25" inkscape:window-maximized="0" inkscape:window-width="640" inkscape:current-layer="svg3741" inkscape:pageopacity="0" inkscape:cx="896" borderopacity="1" inkscape:cy="896" guidetolerance="10" gridtolerance="10" bordercolor="#666666" objecttolerance="10" inkscape:zoom="0.13169643" pagecolor="#ffffff" id="namedview3747" showgrid="false">
	</sodipodi:namedview>
<g id="g3743" transform="matrix(1,0,0,-1,197.42373,1255.0508)">
	<path id="path3745" inkscape:connector-curvature="0" fill="#AAAAAA" d="M-21.667,1001.295V864.623
		c0-2.216-0.712-4.034-2.136-5.457c-1.424-1.424-3.242-2.137-5.457-2.137h-15.187c-2.215,0-4.033,0.713-5.458,2.137
		c-1.423,1.423-2.135,3.242-2.135,5.457v136.672c0,2.214,0.712,4.033,2.135,5.457c1.425,1.424,3.243,2.136,5.458,2.136h15.187
		c2.215,0,4.033-0.712,5.457-2.136S-21.667,1003.509-21.667,1001.295z M39.076,1001.295V864.623c0-2.216-0.712-4.034-2.136-5.457
		c-1.424-1.424-3.243-2.137-5.457-2.137H16.297c-2.214,0-4.033,0.713-5.457,2.137c-1.424,1.423-2.136,3.242-2.136,5.457v136.672
		c0,2.214,0.712,4.033,2.136,5.457s3.243,2.136,5.457,2.136h15.188c2.214,0,4.033-0.712,5.457-2.136
		S39.076,1003.509,39.076,1001.295z M99.818,1001.295V864.623c0-2.216-0.711-4.034-2.135-5.457
		c-1.425-1.424-3.243-2.137-5.458-2.137H77.04c-2.215,0-4.033,0.713-5.457,2.137c-1.424,1.423-2.136,3.242-2.136,5.457v136.672
		c0,2.214,0.712,4.033,2.136,5.457s3.242,2.136,5.457,2.136h15.187c2.215,0,4.033-0.712,5.458-2.136
		C99.108,1005.328,99.818,1003.509,99.818,1001.295z M130.19,829.506v224.938H-82.41V829.506c0-3.479,0.555-6.685,1.661-9.609
		c1.107-2.927,2.254-5.062,3.44-6.406c1.187-1.345,2.017-2.018,2.491-2.018h197.415c0.475,0,1.305,0.673,2.49,2.018
		c1.188,1.344,2.334,3.479,3.44,6.406C129.638,822.823,130.19,826.027,130.19,829.506z M-29.26,1084.817h106.3l-11.389,27.762
		c-1.107,1.424-2.452,2.294-4.034,2.609H-13.6c-1.582-0.315-2.927-1.187-4.033-2.609L-29.26,1084.817z M179.933,1069.723v-14.186
		c0-2.068-0.665-3.769-1.995-5.099s-3.029-1.995-5.098-1.995h-21.279V838.319c0-12.265-3.472-22.866-10.417-31.807
		c-6.945-8.941-15.294-13.41-25.047-13.41H-68.318c-9.753,0-18.102,4.322-25.047,12.967c-6.944,8.646-10.418,19.1-10.418,31.363
		v211.013h-21.277c-2.069,0-3.77,0.665-5.1,1.995c-1.329,1.33-1.994,3.03-1.994,5.099v14.186c0,2.069,0.665,3.77,1.994,5.099
		c1.33,1.33,3.03,1.995,5.1,1.995h68.489l15.517,37.017c2.217,5.467,6.206,10.122,11.969,13.964
		c5.764,3.842,11.601,5.763,17.511,5.763h70.93c5.91,0,11.748-1.92,17.511-5.763s9.753-8.497,11.969-13.964l15.518-37.017h68.49
		c2.067,0,3.768-0.665,5.098-1.995C179.27,1073.493,179.933,1071.792,179.933,1069.723z"/>
</g>
</svg>
