<?xml version="1.0" encoding="utf-8"?>
<!-- Generator: Adobe Illustrator 16.0.0, SVG Export Plug-In . SVG Version: 6.00 Build 0)  -->
<!DOCTYPE svg PUBLIC "-//W3C//DTD SVG 1.1//EN" "http://www.w3.org/Graphics/SVG/1.1/DTD/svg11.dtd">
<svg version="1.1"
	 id="svg3001" xmlns:cc="http://creativecommons.org/ns#" xmlns:dc="http://purl.org/dc/elements/1.1/" xmlns:rdf="http://www.w3.org/1999/02/22-rdf-syntax-ns#" xmlns:inkscape="http://www.inkscape.org/namespaces/inkscape" xmlns:sodipodi="http://sodipodi.sourceforge.net/DTD/sodipodi-0.dtd" xmlns:svg="http://www.w3.org/2000/svg" inkscape:version="0.48.3.1 r9886" sodipodi:docname="remove_font_awesome.svg"
	 xmlns="http://www.w3.org/2000/svg" xmlns:xlink="http://www.w3.org/1999/xlink" x="0px" y="0px" width="425.201px"
	 height="595.281px" viewBox="0 0 425.201 595.281" enable-background="new 0 0 425.201 595.281" xml:space="preserve">
<sodipodi:namedview  id="namedview3007" objecttolerance="10" inkscape:zoom="0.13169643" showgrid="false" inkscape:cx="896" inkscape:cy="896" borderopacity="1" guidetolerance="10" gridtolerance="10" bordercolor="#666666" pagecolor="#ffffff" inkscape:pageopacity="0" inkscape:window-y="25" inkscape:window-maximized="0" inkscape:window-width="640" inkscape:current-layer="svg3001" inkscape:pageshadow="2" inkscape:window-height="480" inkscape:window-x="0">
	</sodipodi:namedview>
<g id="g3003" transform="matrix(1,0,0,-1,205.01695,1262.6441)">
	<path id="path3005" inkscape:connector-curvature="0" fill="#333333" d="M148.527,879.109c0-6.327-2.215-11.705-6.645-16.135
		l-32.27-32.27c-4.43-4.429-9.807-6.644-16.135-6.644s-11.705,2.215-16.135,6.644l-69.759,69.76l-69.76-69.76
		c-4.43-4.429-9.808-6.644-16.135-6.644s-11.706,2.215-16.135,6.644l-32.27,32.27c-4.43,4.43-6.645,9.808-6.645,16.135
		c0,6.328,2.215,11.706,6.645,16.135l69.759,69.76l-69.759,69.76c-4.43,4.429-6.645,9.807-6.645,16.135
		c0,6.327,2.215,11.705,6.645,16.135l32.27,32.27c4.429,4.429,9.808,6.644,16.135,6.644s11.705-2.215,16.135-6.644l69.76-69.76
		l69.759,69.76c4.43,4.429,9.807,6.644,16.135,6.644s11.705-2.215,16.135-6.644l32.27-32.27c4.43-4.43,6.645-9.808,6.645-16.135
		c0-6.328-2.215-11.706-6.645-16.135l-69.76-69.76l69.76-69.76C146.312,890.815,148.527,885.437,148.527,879.109z"/>
</g>
</svg>
