<?xml version="1.0" encoding="utf-8"?>
<!-- Generator: Adobe Illustrator 16.0.0, SVG Export Plug-In . SVG Version: 6.00 Build 0)  -->
<!DOCTYPE svg PUBLIC "-//W3C//DTD SVG 1.1//EN" "http://www.w3.org/Graphics/SVG/1.1/DTD/svg11.dtd">
<svg version="1.1" id="Layer_1" xmlns="http://www.w3.org/2000/svg" xmlns:xlink="http://www.w3.org/1999/xlink" x="0px" y="0px"
	 width="425.201px" height="595.281px" viewBox="0 0 425.201 595.281" enable-background="new 0 0 425.201 595.281"
	 xml:space="preserve">
<path fill="#AAAAAA" d="M354.335,315.329v-51.378l-31.891-5.314c-1.771-7.087-5.314-14.174-10.63-24.804l19.488-26.575
	l-37.206-37.204l-26.574,19.487c-8.858-5.313-17.717-8.857-24.804-10.63l-3.544-31.89h-51.379l-5.313,31.89
	c-8.858,1.771-15.945,5.315-24.804,10.63l-26.575-19.487l-37.205,37.204l17.717,26.575c-5.313,8.858-7.087,15.945-10.63,24.804
	l-30.118,3.544v51.378l31.89,5.314c1.771,8.858,5.315,15.945,10.631,24.804L95.67,370.251l37.205,37.205l26.575-17.717
	c7.087,3.544,15.945,7.087,24.804,10.631l5.314,31.891h53.149l5.315-31.891c8.857-1.771,15.944-5.314,24.803-10.631l26.575,19.489
	l37.205-37.206l-19.487-26.574c5.314-8.858,8.857-17.717,10.63-24.804L354.335,315.329z M212.6,341.904
	c-30.118,0-53.15-23.031-53.15-53.149s23.032-53.149,53.15-53.149c30.117,0,53.148,23.031,53.148,53.149
	C265.75,318.873,242.719,341.904,212.6,341.904z"/>
</svg>
