<?xml version="1.0" encoding="utf-8"?>
<!-- Generator: Adobe Illustrator 16.0.0, SVG Export Plug-In . SVG Version: 6.00 Build 0)  -->
<!DOCTYPE svg PUBLIC "-//W3C//DTD SVG 1.1//EN" "http://www.w3.org/Graphics/SVG/1.1/DTD/svg11.dtd">
<svg version="1.1" id="Layer_1" xmlns="http://www.w3.org/2000/svg" xmlns:xlink="http://www.w3.org/1999/xlink" x="0px" y="0px"
	 width="226.007px" height="72.406px" viewBox="0 0 226.007 72.406" enable-background="new 0 0 226.007 72.406"
	 xml:space="preserve">
<g enable-background="new    ">
	<path fill="#BE0000" d="M45.609,26.89c0,2.304-0.504,4.381-1.512,6.229c-1.008,1.848-2.412,3.42-4.212,4.716
		c-1.8,1.296-3.924,2.293-6.372,2.987c-2.448,0.697-5.088,1.045-7.92,1.045h-3.312v18.936h-6.624V12.85H27.25
		c2.592,0,5.004,0.288,7.236,0.864s4.176,1.452,5.832,2.628c1.656,1.177,2.952,2.641,3.888,4.392
		C45.142,22.486,45.609,24.538,45.609,26.89z M38.985,26.817c0-1.584-0.312-2.916-0.936-3.996c-0.624-1.079-1.476-1.967-2.556-2.663
		c-1.08-0.695-2.353-1.199-3.816-1.513c-1.464-0.312-3.013-0.468-4.644-0.468h-4.752v18.36h3.528c1.919,0,3.683-0.217,5.292-0.648
		c1.607-0.432,2.999-1.067,4.176-1.908c1.176-0.839,2.088-1.859,2.736-3.06C38.662,29.723,38.985,28.354,38.985,26.817z"/>
</g>
<g enable-background="new    ">
	<path fill="#58AF2A" d="M82.906,43.521c0,2.448-0.373,4.752-1.116,6.912c-0.745,2.16-1.836,4.068-3.276,5.725
		c-1.44,1.655-3.204,2.964-5.292,3.924c-2.088,0.959-4.453,1.439-7.092,1.439c-2.688,0-5.064-0.48-7.128-1.439
		c-2.064-0.96-3.816-2.269-5.256-3.924c-1.44-1.656-2.532-3.564-3.276-5.725c-0.745-2.16-1.116-4.464-1.116-6.912
		c0-2.447,0.372-4.752,1.116-6.912c0.744-2.159,1.836-4.067,3.276-5.724s3.192-2.963,5.256-3.924c2.063-0.96,4.439-1.44,7.128-1.44
		c2.64,0,5.004,0.48,7.092,1.44c2.088,0.961,3.852,2.268,5.292,3.924s2.531,3.564,3.276,5.724
		C82.533,38.77,82.906,41.074,82.906,43.521z M76.426,43.521c0-1.775-0.216-3.456-0.648-5.04c-0.432-1.584-1.069-2.963-1.908-4.14
		c-0.84-1.176-1.908-2.1-3.204-2.772c-1.296-0.671-2.808-1.008-4.536-1.008c-1.728,0-3.24,0.337-4.536,1.008
		c-1.296,0.673-2.365,1.597-3.204,2.772c-0.84,1.177-1.476,2.556-1.908,4.14c-0.432,1.584-0.648,3.265-0.648,5.04
		c0,1.825,0.216,3.517,0.648,5.076c0.432,1.561,1.068,2.929,1.908,4.104c0.839,1.177,1.908,2.1,3.204,2.771
		c1.296,0.673,2.808,1.008,4.536,1.008c1.728,0,3.24-0.335,4.536-1.008c1.296-0.672,2.364-1.595,3.204-2.771
		c0.839-1.176,1.476-2.544,1.908-4.104C76.209,47.038,76.426,45.347,76.426,43.521z"/>
</g>
<g enable-background="new    ">
	<path fill="#0000CF" d="M97.305,51.809c0,1.391,0.275,2.457,0.828,3.199c0.551,0.743,1.5,1.114,2.844,1.114
		c1.055,0,2.135-0.145,3.24-0.433l0.288,4.885c-1.584,0.536-3.337,0.804-5.256,0.804c-3.024,0-5.184-0.888-6.48-2.664
		c-1.296-1.775-1.944-3.96-1.944-6.552V9.97h6.48V51.809z"/>
</g>
<g enable-background="new    ">
	<path fill="#00D1D0" d="M130.496,56.481c-0.529,0.625-1.178,1.236-1.944,1.836c-0.769,0.602-1.645,1.142-2.628,1.62
		c-0.984,0.48-2.064,0.864-3.24,1.152c-1.177,0.288-2.412,0.432-3.708,0.432c-1.44,0-2.761-0.229-3.96-0.684
		c-1.2-0.456-2.232-1.092-3.096-1.908c-0.864-0.815-1.548-1.823-2.052-3.024c-0.504-1.199-0.756-2.52-0.756-3.96
		c0-3.168,1.116-5.567,3.348-7.199c2.231-1.632,5.22-2.567,8.964-2.809c1.535-0.096,3.061-0.167,4.572-0.216
		c1.512-0.047,2.963-0.072,4.355-0.072v-1.512c0-2.927-0.624-5.22-1.871-6.876c-1.25-1.656-3.312-2.484-6.193-2.484
		c-1.68,0-3.275,0.217-4.787,0.648s-2.965,1.033-4.356,1.8l-1.512-4.752c1.824-1.104,3.683-1.872,5.58-2.304
		c1.896-0.433,3.972-0.648,6.228-0.648c4.08,0,7.332,1.249,9.756,3.744c2.424,2.496,3.637,6.073,3.637,10.729v20.808h-6.336V56.481z
		 M120.847,56.77c1.872,0,3.623-0.419,5.256-1.26c1.631-0.839,3.048-1.908,4.248-3.204v-6.408c-1.439,0.097-2.784,0.192-4.031,0.288
		c-1.25,0.097-2.497,0.216-3.744,0.36c-1.008,0.097-1.957,0.265-2.844,0.504c-0.89,0.24-1.656,0.564-2.305,0.972
		c-0.648,0.408-1.152,0.937-1.512,1.584c-0.36,0.648-0.54,1.429-0.54,2.34c0,1.633,0.479,2.845,1.44,3.637
		C117.775,56.374,119.119,56.77,120.847,56.77z"/>
</g>
<g enable-background="new    ">
	<path fill="#B300B3" d="M166.566,31.569h-1.655c-2.545,0-4.741,0.48-6.588,1.44c-1.849,0.961-3.421,2.52-4.716,4.68v23.112h-6.48
		v-34.56h6.191v6.624c1.009-2.305,2.341-4.056,3.996-5.257c1.656-1.199,3.853-1.8,6.588-1.8c1.057,0,1.945,0.12,2.664,0.36V31.569z"
		/>
</g>
<g enable-background="new    ">
	<path fill="#FFE400" d="M172.253,16.018c0-1.104,0.371-2.063,1.115-2.88c0.744-0.815,1.74-1.224,2.988-1.224
		s2.244,0.408,2.988,1.224c0.744,0.816,1.116,1.776,1.116,2.88c0,1.104-0.372,2.064-1.116,2.88c-0.744,0.817-1.74,1.225-2.988,1.225
		s-2.244-0.407-2.988-1.225C172.625,18.082,172.253,17.122,172.253,16.018z M173.117,60.802v-34.56h6.48v34.56H173.117z"/>
</g>
<g enable-background="new    ">
	<path fill="#3C3C3C" d="M212.574,50.938c0,1.633-0.35,3.097-1.044,4.393c-0.696,1.296-1.656,2.4-2.88,3.312
		c-1.225,0.912-2.677,1.62-4.356,2.124c-1.681,0.504-3.505,0.756-5.472,0.756c-0.864,0-1.776-0.048-2.736-0.144
		c-0.961-0.097-1.92-0.241-2.88-0.433c-0.961-0.19-1.884-0.419-2.772-0.684c-0.889-0.264-1.645-0.54-2.268-0.828l1.08-5.112
		c1.248,0.529,2.676,1.009,4.284,1.44c1.607,0.432,3.396,0.648,5.364,0.648c2.062,0,3.803-0.372,5.22-1.116
		c1.415-0.744,2.124-1.932,2.124-3.564c0-0.767-0.192-1.451-0.576-2.052c-0.385-0.6-0.889-1.127-1.512-1.584
		c-0.625-0.456-1.357-0.875-2.196-1.26c-0.841-0.384-1.717-0.768-2.628-1.152c-1.249-0.479-2.496-1.02-3.744-1.62
		c-1.248-0.6-2.389-1.319-3.42-2.16c-1.033-0.839-1.872-1.811-2.52-2.916c-0.648-1.104-0.973-2.423-0.973-3.96
		c0-1.68,0.348-3.119,1.044-4.319c0.695-1.199,1.608-2.184,2.736-2.952c1.127-0.768,2.436-1.332,3.924-1.692
		c1.487-0.359,3.024-0.54,4.608-0.54c1.823,0,3.6,0.205,5.328,0.612c1.728,0.408,3.287,0.972,4.68,1.692l-1.08,4.896
		c-1.393-0.672-2.844-1.188-4.355-1.548c-1.513-0.36-3.037-0.54-4.572-0.54c-1.682,0-3.096,0.288-4.248,0.864
		s-1.729,1.632-1.729,3.168c0,0.72,0.203,1.332,0.612,1.836c0.407,0.504,0.937,0.961,1.584,1.368
		c0.647,0.408,1.355,0.78,2.124,1.115c0.768,0.337,1.487,0.673,2.16,1.009c0.623,0.288,1.559,0.696,2.808,1.224
		c1.247,0.528,2.483,1.213,3.708,2.052c1.225,0.841,2.291,1.885,3.204,3.132C212.117,47.65,212.574,49.162,212.574,50.938z"/>
</g>
</svg>
